# xmcd
#
# Track frame offsets:
#	150
#	23705
#	40127
#	57575
#	78670
#	96902
#	129827
#	144897
#	159515
#	174672
#	187640
#	205742
#	220332
#	237690
#	251567
#
# Disc length: 3546
#
# Revision: 2
# Processed by: cddbd v1.5.1PL0 Copyright (c) Steve Scherf et al.
# Submitted via: CDex 1.50Beta5
# Normalized: r1:DSETVAR1,TDELIM( - )
#
DISCID=cb0dd80f
DTITLE=Various Artist - The Dance Box
DYEAR=2002
DGENRE=Dance
TTITLE0=Geri Halliwell - Bag It Up (Yomanda Edit)
TTITLE1=Vengaboys - We're Going to Ibiza
TTITLE2=Shaggy - Boombastic
TTITLE3=Tin Tin Out Featuring Emma Bunton - What I Am (Groove Chronicle Remix)
TTITLE4=Aurora Featuring Naimee Coleman - Ordinary World
TTITLE5=Louise - Let's Go Round Again (Rated PG Club Mix)
TTITLE6=Boris Dlugosch Presents Booom! - Hold Your Head Up High
TTITLE7=Tall Paul - Rock Da House
TTITLE8=Perpetual Motion - Keep On Dancin' (Let's Go)(Banging Club Mix)
TTITLE9=Precocious Brats Featuring Kevin and Perry - Big Girl
TTITLE10=Amen UK - People of Love
TTITLE11=DJ Quicksilver - Bellissima
TTITLE12=Healey and Amos - Argentina
TTITLE13=Amira - My Desire
TTITLE14=Cuban Boys - Cognoscenti Vs. Intelligentsia
EXTD=
EXTT0=
EXTT1=
EXTT2=
EXTT3=
EXTT4=
EXTT5=
EXTT6=
EXTT7=
EXTT8=
EXTT9=
EXTT10=
EXTT11=
EXTT12=
EXTT13=
EXTT14=
PLAYORDER=
